<svg id="图层_1" data-name="图层 1" xmlns="http://www.w3.org/2000/svg" xmlns:xlink="http://www.w3.org/1999/xlink" viewBox="0 0 819.2 819.1"><defs><style>.cls-1{fill:none;}.cls-2{clip-path:url(#clip-path);}.cls-3{fill:#fff;}.cls-4{fill:#fce9ea;}.cls-5{fill:#2097f3;}.cls-6{fill:#fff5f7;}.cls-7{fill:#ed7667;}.cls-8{fill:#f08e83;}</style><clipPath id="clip-path" transform="translate(360.12 359.38)"><rect class="cls-1" x="-360" y="-360" width="819.84" height="820.72"/></clipPath></defs><title>头像</title><g class="cls-2"><path class="cls-3" d="M49.48-359.38c-226.2,0-409.6,183.3-409.6,409.51,0,139.38,69.59,262.43,175.9,336.41C-164.09,316.45-114.1,263.22-46,237.47c-13.32,15.63,1.45,130,23.29,114.64l36.09-25.32,36-25.42L47,299.7,13.39,276l-52.25-38.83A8.07,8.07,0,0,0-41.21,236c-.14-.05-.29-.07-.42-.11l-1,.36q5.23-1.89,10.55-3.54c1-.31,2-.64,3-.94q10.34-3.09,20.89-5.32c1.05-.22,2.12-.42,3.19-.63q5.67-1.12,11.38-2c2.59-.4,5.2-.76,7.81-1.09,1.12-.14,2.23-.3,3.37-.43q5.61-.65,11.24-1.08H70.27c3.77.28,7.5.66,11.21,1.08,1.17.13,2.31.29,3.47.45q5.77.73,11.5,1.7,3.76.64,7.48,1.38c1.13.23,2.27.44,3.39.68,3.46.73,6.89,1.51,10.27,2.37l.27.07c3.45.88,6.84,1.84,10.22,2.84,1.07.32,2.14.67,3.21,1,2.34.73,4.66,1.49,7,2.28l3.49,1.23-1.3-.46a2,2,0,0,0-.21.05,7.42,7.42,0,0,0-2.87,1.4L85.48,276,51.76,299.7l-2.37,1.67,36.09,25.42,36,25.32c22,15.47,36.57-100.56,22.75-114.94,68.51,25.62,118.81,79,139,149.32,106.26-74,175.82-197,175.82-336.36,0-226.21-183.4-409.52-409.6-409.52Zm0,580.43c-104.35,0-189.28-82.89-192.69-186.41l-.35-.21c-4-73.95,34.28-130.92,83-164.58.9-.63,1.8-1.28,2.71-1.89s1.86-1.19,2.78-1.79c1.73-1.12,3.46-2.24,5.22-3.3s3.49-2,5.24-3c.77-.43,1.53-.9,2.3-1.32,27.75-15.21,57.48-23.23,84-23,2.57-.1,5.14-.19,7.73-.19s4.94.09,7.4.18c21.24-.14,44.48,5,67.12,14.75a192.81,192.81,0,0,1,54.52,34.61c39.15,34.47,67.23,85.68,63.82,149.54l-.16.09c-3.34,103.57-88.3,186.52-192.68,186.52Zm0,0" transform="translate(360.12 359.38)"/></g><path class="cls-4" d="M-44.59-140.14c.77-.44,1.53-.9,2.3-1.32-.77.43-1.53.89-2.3,1.32ZM56.88-164.46q-3.7-.16-7.4-.18c-2.59,0-5.16.09-7.73.19,2.51,0,5,.11,7.44.28q3.84-.26,7.68-.29ZM-55.05-133.82c1.73-1.12,3.47-2.24,5.22-3.3-1.77,1.06-3.49,2.18-5.22,3.3Zm-5.5,3.68c.91-.62,1.8-1.28,2.71-1.89-.91.62-1.8,1.26-2.71,1.89ZM124-149.71a208,208,0,0,1,54.51,34.61A192.82,192.82,0,0,0,124-149.71ZM17.68-49.93c-37.05,65-99.83,122.66-160.89,84.57,3.4,103.52,88.34,186.41,192.69,186.41S238.82,138.1,242.16,34.53c-51,31.82-184.78-14.28-224.48-84.46Zm0,0" transform="translate(360.12 359.38)"/><path class="cls-5" d="M117.59,228.79l.27.07Zm22.63,7,.21-.06,1.3.46c-1.16-.42-2.32-.83-3.49-1.24l2,.72s0,.07,0,.11Zm-36.29-10.07c1.13.22,2.27.43,3.39.67-1.12-.24-2.26-.45-3.39-.67Zm40.3,11.42c13.82,14.38-.77,130.41-22.75,114.94l-36-25.32L49.39,301.36l-36,25.42L-22.71,352.1c-21.85,15.37-36.61-99-23.29-114.63-68.11,25.75-118.1,79-138.23,149.06a407.72,407.72,0,0,0,233.7,73.19,407.74,407.74,0,0,0,233.78-73.24c-20.22-70.34-70.52-123.69-139-149.32ZM-39.26,235l-3.39,1.2,1-.36c.14,0,.28.06.42.11l-.07-.23,2-.72Zm0,0" transform="translate(360.12 359.38)"/><path class="cls-6" d="M49.48,299.75c-.83,0-1.65,0-2.47-.06l2.38,1.67,2.37-1.66c-.75,0-1.51.06-2.27.06Zm78.6-68.06c1.07.32,2.14.66,3.21,1-1.07-.34-2.13-.68-3.21-1ZM-8.21,226.4c1.05-.23,2.12-.43,3.19-.64-1.06.21-2.13.41-3.19.64Zm89.69-4.18c1.16.14,2.31.3,3.47.45-1.16-.15-2.31-.31-3.47-.45ZM-32.1,232.65c1-.31,2-.64,3-.94-1,.3-2,.63-3,.94Zm46.28-10c1.12-.14,2.23-.3,3.37-.43-1.13.13-2.25.29-3.37.43Zm0,0" transform="translate(360.12 359.38)"/><path class="cls-6" d="M51.76,299.7,85.48,276l51.87-38.83a7.58,7.58,0,0,1,2.87-1.4l0-.11-2-.72q-3.46-1.18-7-2.28c-1.07-.34-2.13-.68-3.21-1q-5.08-1.53-10.22-2.85l-.27-.07q-5.12-1.29-10.27-2.37c-1.12-.24-2.26-.45-3.39-.67q-5.64-1.12-11.31-2-3.83-.59-7.67-1.07c-1.16-.15-2.31-.31-3.47-.44q-5.59-.65-11.21-1.08H28.79q-5.63.43-11.24,1.08c-1.13.13-2.25.29-3.37.43-2.62.33-5.23.69-7.81,1.09q-5.71.88-11.38,2c-1.06.21-2.13.41-3.19.63q-10.55,2.22-20.89,5.31c-1,.31-2,.63-3,.94-2.41.75-4.79,1.52-7.16,2.34l-2,.72.08.23a8.07,8.07,0,0,1,2.35,1.25L13.39,276,47,299.69c.82,0,1.64.06,2.47.06s1.52,0,2.28-.05Zm0,0" transform="translate(360.12 359.38)"/><path class="cls-7" d="M17.68-49.93C57.38,20.25,191.17,66.36,242.16,34.53l.16-.09c3.41-63.85-24.66-115.07-63.82-149.54A208,208,0,0,0,124-149.71c-22.64-9.8-45.88-14.9-67.12-14.75q-3.88,0-7.68.29c6.63,23.61-6.65,70.6-31.52,114.25Zm0,0" transform="translate(360.12 359.38)"/><path class="cls-8" d="M17.68-49.93C42.55-93.57,55.83-140.55,49.2-164.17c-2.48-.17-5-.26-7.44-.28-26.57-.23-56.29,7.79-84,23-.77.42-1.54.88-2.3,1.32-1.75,1-3.5,2-5.24,3s-3.49,2.18-5.22,3.3c-.93.6-1.86,1.17-2.79,1.79s-1.8,1.27-2.71,1.89c-48.73,33.66-87,90.63-83,164.58l.35.21C-82.15,72.74-19.37,15.11,17.68-49.93Zm0,0" transform="translate(360.12 359.38)"/></svg>